PathFileType	4	(X/Y/Z)	/Users/itak/Documents/Research/Walk-IL/dataset/trc/00404_00012.trc
DataRate	CameraRate	NumFrames	NumMarkers	Units	OrigDataRate	OrigDataStartFrame	OrigNumFrames
100.000000	100.000000	4	54	mm	100.000000	70	566
Frame#	Time	RPSI			LPSI			L3			STRN			T10			C7			CLAV			RBAK			LBAK			LSHO			LUPA			LAEL			LAOL			LWTS			LWPS			LFRA			LHPS			RSHO			RUPA			RAEL			RAOL			RWTS			RWPS			RFRA			RIFD			RHPS			RBHD			LFHD			RFHD			LBHD			LHIP			RHIP			RASI			LASI			LKNE			LTHI			LANK			LTIP			LTOE			LMT1			LMT5			LHEE			RKNE			RTHI			RANK			RTIP			RTOE			RMT1			RMT5			RHEE			LIFD			LHTS			RHTS			*53			
		X1	Y1	Z1	X2	Y2	Z2	X3	Y3	Z3	X4	Y4	Z4	X5	Y5	Z5	X6	Y6	Z6	X7	Y7	Z7	X8	Y8	Z8	X9	Y9	Z9	X10	Y10	Z10	X11	Y11	Z11	X12	Y12	Z12	X13	Y13	Z13	X14	Y14	Z14	X15	Y15	Z15	X16	Y16	Z16	X17	Y17	Z17	X18	Y18	Z18	X19	Y19	Z19	X20	Y20	Z20	X21	Y21	Z21	X22	Y22	Z22	X23	Y23	Z23	X24	Y24	Z24	X25	Y25	Z25	X26	Y26	Z26	X27	Y27	Z27	X28	Y28	Z28	X29	Y29	Z29	X30	Y30	Z30	X31	Y31	Z31	X32	Y32	Z32	X33	Y33	Z33	X34	Y34	Z34	X35	Y35	Z35	X36	Y36	Z36	X37	Y37	Z37	X38	Y38	Z38	X39	Y39	Z39	X40	Y40	Z40	X41	Y41	Z41	X42	Y42	Z42	X43	Y43	Z43	X44	Y44	Z44	X45	Y45	Z45	X46	Y46	Z46	X47	Y47	Z47	X48	Y48	Z48	X49	Y49	Z49	X50	Y50	Z50	X51	Y51	Z51	X52	Y52	Z52	X53	Y53	Z53	X54	Y54	Z54	

71	0.7000000000000001	139.9002380371094	967.771728515625	1151.237426757812	128.2419738769531	968.4385986328125	1281.730102539062	129.2452850341797	1047.041259765625	1218.211181640625	-120.1228637695312	1184.645263671875	1172.779418945312	130.0603179931641	1152.372436523438	1227.357421875	64.09972381591797	1395.547241210938	1224.037475585938	-76.89077758789062	1306.071655273438	1180.486206054688	134.4746704101562	1253.409057617188	1173.666381835938	53.15835189819336	1359.917236328125	1329.365844726562	-44.35959625244141	1371.097045898438	1354.271240234375	-34.06149291992188	1257.326293945312	1432.02734375	-54.23440551757812	1058.619018554688	1454.216674804688	18.32679748535156	1038.400390625	1412.101318359375	-184.6725158691406	889.9841918945312	1370.766479492188	-155.1746520996094	855.0382080078125	1439.044799804688	-90.08273315429688	964.1682739257812	1452.375610351562	-191.6340637207031	780.5864868164062	1417.508422851562	52.2770881652832	1369.88427734375	1057.14794921875	87.71399688720703	1308.020141601562	1007.033569335938	123.8917694091797	1049.70068359375	960.22705078125	112.7183151245117	1035.717407226562	1053.774169921875	4.187333106994629	831.905517578125	928.7139892578125	65.59172821044922	825.390380859375	887.7929077148438	109.1306533813477	985.6083984375	932.75537109375	12.93960380554199	658.2222900390625	908.0917358398438	64.56065368652344	737.7850952148438	879.3515625	60.22961807250977	1562.293090820312	1121.050048828125	-116.9645690917969	1591.8701171875	1206.91748046875	-69.99617004394531	1581.511596679688	1093.836547851562	13.34261798858643	1571.108520507812	1274.7548828125	34.40792465209961	950.694091796875	1387.371337890625	68.03181457519531	946.2385864257812	1030.123046875	-68.62627410888672	950.193359375	1076.28759765625	-79.96560668945312	938.090087890625	1340.314208984375	81.9278564453125	460.7627258300781	1371.238525390625	58.61576843261719	601.8106079101562	1378.73583984375	256.9097290039062	42.41047668457031	1322.785278320312	175.3491973876953	242.7933807373047	1360.366821289062	36.54402923583984	46.732666015625	1285.397216796875	111.2138824462891	44.84854888916016	1243.372436523438	132.8505706787109	40.1796989440918	1350.564819335938	289.2176513671875	40.35489654541016	1263.375122070312	-146.6282196044922	490.8655090332031	1044.9970703125	-65.18965911865234	741.1566772460938	1021.909484863281	-191.4176025390625	65.22222137451172	1092.167846679688	-183.4659118652344	368.9055480957031	1054.536010742188	-372.2972717285156	85.48181915283203	1100.97705078125	-314.5886535644531	76.66603088378906	1150.453979492188	-269.0803527832031	65.00446319580078	1061.112915039062	-140.9682464599609	46.05722045898438	1165.208618164062	-244.9472198486328	720.6239013671875	1359.298461914062	-235.0699310302734	801.9190673828125	1375.448120117188	-2.848089218139648	728.6553955078125	894.6708984375	nan	nan	nan	
72	0.71	133.8515625	965.7462158203125	1150.028686523438	121.6232147216797	966.9539184570312	1280.431518554688	122.8054504394531	1044.972900390625	1216.973022460938	-125.8310775756836	1182.697875976562	1169.757446289062	124.0174255371094	1150.301147460938	1226.320434570312	57.92036056518555	1393.509521484375	1222.747314453125	-82.65510559082031	1304.146850585938	1177.952392578125	128.7693481445312	1251.341064453125	1173.030517578125	46.10969924926758	1357.790649414062	1328.045532226562	-51.59140014648438	1368.922607421875	1351.958618164062	-41.94335174560547	1255.117309570312	1429.818237304688	-62.66901779174805	1056.65380859375	1452.001831054688	10.1592903137207	1035.931396484375	1410.46875	-195.7856903076172	892.0958251953125	1366.385986328125	-167.8186950683594	856.1981201171875	1434.88818359375	-99.92942810058594	963.6103515625	1449.607055664062	-205.9119110107422	782.7759399414062	1412.747802734375	47.73955917358398	1367.83349609375	1055.716796875	83.89501190185547	1306.00048828125	1006.115478515625	121.5907135009766	1047.625732421875	960.8407592773438	108.581901550293	1033.825073242188	1054.12060546875	4.531949996948242	828.6936645507812	927.0523681640625	67.11350250244141	822.7803955078125	887.7264404296875	107.9458541870117	983.4644165039062	933.1502075195312	16.05397605895996	655.0453491210938	907.1951293945312	67.34114837646484	735.1942138671875	879.4893188476562	54.74785995483398	1560.29443359375	1119.652709960938	-123.3937454223633	1589.560180664062	1203.524169921875	-75.28510284423828	1578.983032226562	1091.03466796875	6.205196857452393	1569.40380859375	1272.838623046875	27.40693092346191	949.22509765625	1385.72802734375	62.50826263427734	943.8515014648438	1028.695556640625	-74.36830139160156	948.0707397460938	1074.128295898438	-86.75000762939453	936.3402709960938	1338.25341796875	78.60917663574219	460.0458679199219	1370.359619140625	54.02009201049805	600.8558959960938	1377.60693359375	256.7501525878906	42.6716423034668	1322.661987304688	173.8344116210938	242.7310485839844	1359.931518554688	36.35621643066406	46.46430587768555	1285.412963867188	111.1114959716797	44.66696548461914	1243.27685546875	132.7638854980469	40.19547271728516	1350.579956054688	289.1157531738281	40.60811996459961	1263.320922851562	-152.1494903564453	488.8756408691406	1042.868041992188	-70.68393707275391	739.1873168945312	1020.044250488281	-211.6888427734375	64.74153137207031	1088.715698242188	-192.6587982177734	368.2890625	1051.82568359375	-392.2664489746094	89.50483703613281	1095.44189453125	-335.3795471191406	79.46546936035156	1145.536376953125	-288.9942626953125	66.56620025634766	1056.726928710938	-162.8134765625	44.14931106567383	1162.402954101562	-261.4748229980469	724.8320922851562	1354.891479492188	-248.5237121582031	805.1817016601562	1370.260986328125	-0.3401817679405212	725.2454833984375	893.2274169921875	nan	nan	nan	
73	0.72	127.6468963623047	963.601318359375	1148.654907226562	114.9182968139648	965.3695068359375	1278.962890625	116.1862716674805	1042.825073242188	1215.552124023438	-131.7160186767578	1180.638916015625	1166.588500976562	117.779541015625	1148.121948242188	1225.119506835938	51.57544708251953	1391.388671875	1221.313598632812	-88.64009094238281	1302.168334960938	1175.283447265625	122.9109802246094	1249.203247070312	1172.227172851562	38.90107345581055	1355.544311523438	1326.53955078125	-58.97500610351562	1366.598510742188	1349.522338867188	-49.96379470825195	1252.726928710938	1427.44189453125	-71.12826538085938	1054.529541015625	1449.583984375	1.882589817047119	1033.28662109375	1408.620239257812	-206.9114532470703	894.2342529296875	1361.762939453125	-180.4905700683594	857.3936767578125	1430.502685546875	-109.8418807983398	962.9838256835938	1446.612060546875	-220.2440643310547	785.1080932617188	1407.802856445312	43.00266265869141	1365.714477539062	1054.143920898438	79.88973236083984	1303.924438476562	1005.070373535156	119.1081008911133	1045.491088867188	961.4278564453125	104.2203369140625	1031.869995117188	1054.39013671875	4.726263046264648	825.4243774414062	925.4362182617188	68.43885040283203	820.1207885742188	887.7647705078125	106.5856399536133	981.2479858398438	933.5551147460938	19.02507209777832	651.8408203125	906.5430297851562	69.95417785644531	732.5608520507812	879.8192749023438	49.18966293334961	1558.197631835938	1118.197875976562	-129.9069061279297	1587.18359375	1200.05859375	-80.62831115722656	1576.413818359375	1088.1513671875	-1.039369940757751	1567.569946289062	1270.849609375	20.35830116271973	947.6809692382812	1383.975463867188	56.82464218139648	941.2921752929688	1027.196533203125	-80.27226257324219	945.8551025390625	1071.95263671875	-93.62683868408203	934.4953002929688	1336.169189453125	75.09938812255859	459.2489624023438	1369.395874023438	49.28556060791016	599.838623046875	1376.39697265625	256.5704345703125	42.966796875	1322.54052734375	172.21044921875	242.6576385498047	1359.434692382812	36.12765121459961	46.11798858642578	1285.4443359375	111.0097274780273	44.49433135986328	1243.195556640625	132.6738433837891	40.22170257568359	1350.58544921875	289.0339965820312	40.92705917358398	1263.263305664062	-158.0709533691406	486.9265441894531	1040.7099609375	-76.4549560546875	737.131591796875	1018.136535644531	-231.2298736572266	64.56938934326172	1084.9541015625	-201.9561157226562	367.7282104492188	1049.055297851562	-411.3717346191406	93.66545104980469	1089.870361328125	-355.2376098632812	82.43566131591797	1140.526733398438	-308.1455383300781	68.35449981689453	1052.167358398438	-183.8111724853516	42.62031173706055	1159.175170898438	-277.8125610351562	728.948486328125	1350.089721679688	-261.9849853515625	808.5091552734375	1364.823486328125	2.067896366119385	721.7867431640625	891.9651489257812	nan	nan	nan	
74	0.73	121.2919387817383	961.3577880859375	1147.123657226562	108.1302795410156	963.6859130859375	1277.335327148438	109.4096908569336	1040.62890625	1213.957763671875	-137.7936096191406	1178.4814453125	1163.2861328125	111.3341827392578	1145.866088867188	1223.752319335938	45.06318283081055	1389.207397460938	1219.718505859375	-94.84450531005859	1300.135009765625	1172.462524414062	116.8983764648438	1247.024047851562	1171.246826171875	31.53693199157715	1353.213500976562	1324.817016601562	-66.51419067382812	1364.160522460938	1346.942749023438	-58.11458206176758	1250.182495117188	1424.88671875	-79.64063262939453	1052.271484375	1446.94970703125	-6.511752605438232	1030.49951171875	1406.555053710938	-218.0319976806641	896.3845825195312	1356.91455078125	-193.1676635742188	858.6141967773438	1425.8955078125	-119.8296966552734	962.2806396484375	1443.37841796875	-234.6082000732422	787.5684814453125	1402.65234375	38.04697036743164	1363.54150390625	1052.414916992188	75.67625427246094	1301.805053710938	1003.882751464844	116.446662902832	1043.316772460938	961.9636840820312	99.63700866699219	1029.871337890625	1054.563110351562	4.740411758422852	822.1292724609375	923.8707275390625	69.5172119140625	817.431640625	887.8915405273438	105.04541015625	978.9783325195312	933.9555053710938	21.79251480102539	648.6361694335938	906.15087890625	72.34393310546875	729.9053955078125	880.3318481445312	43.543701171875	1556.0302734375	1116.67626953125	-136.506591796875	1584.771240234375	1196.522338867188	-86.03139495849609	1573.8486328125	1085.19384765625	-8.390293121337891	1565.614501953125	1268.782104492188	13.27181148529053	946.060791015625	1382.1171875	51.01604080200195	938.6004028320312	1025.642456054688	-86.32684326171875	943.5701904296875	1069.75390625	-100.5848617553711	932.5574340820312	1334.047241210938	71.37575531005859	458.3644714355469	1368.326293945312	44.38179779052734	598.7550659179688	1375.088012695312	256.3660888671875	43.31357955932617	1322.422729492188	170.4506988525391	242.5785827636719	1358.873046875	35.84663772583008	45.68227386474609	1285.48974609375	110.9083480834961	44.34030151367188	1243.1328125	132.5753479003906	40.25456237792969	1350.57421875	288.9743347167969	41.33866119384766	1263.206909179688	-164.4449615478516	485.0582885742188	1038.493896484375	-82.50570678710938	735.0326538085938	1016.163452148438	-249.8973388671875	64.63504028320312	1080.95361328125	-211.3882598876953	367.224365234375	1046.2236328125	-429.4983520507812	97.82881927490234	1084.372192382812	-374.0369262695312	85.44786071777344	1135.513793945312	-326.4235229492188	70.27468109130859	1047.516479492188	-203.7748260498047	41.41110992431641	1155.585083007812	-293.765380859375	732.8775024414062	1344.762817382812	-275.4261474609375	811.9170532226562	1359.157470703125	4.32112979888916	718.3023071289062	890.8995971679688	nan	nan	nan	
